<?xml version="1.0" encoding="utf-8"?>
<!-- Generator: Adobe Illustrator 22.0.1, SVG Export Plug-In . SVG Version: 6.00 Build 0)  -->
<svg version="1.1" id="Laag_1" xmlns="http://www.w3.org/2000/svg" xmlns:xlink="http://www.w3.org/1999/xlink" x="0px" y="0px"
	 viewBox="0 0 1190.6 841.9" style="enable-background:new 0 0 1190.6 841.9;" xml:space="preserve">
<style type="text/css">
	.st0{fill:#FF0000;}
</style>
<g>
	<path d="M596.6-199.5c6.2-7.4,11.7-13.7,16.8-20.1c6.5-8.1,12.7-16.5,19.2-24.7c7.9-9.8,15.8-19.6,23.9-29.2
		c6.5-7.7,13.1-15.5,20.2-22.7c13-13.4,25.9-27,39.6-39.5c18.4-16.8,37.7-32.5,59.6-44.5c14.1-7.8,28.3-15.5,43.1-21.9
		c15.9-6.9,32.4-12.4,48.8-18c11.2-3.8,22.7-7.1,34.3-9.7c14.2-3.2,28.6-5.7,43-8c36.9-5.8,74.1-4.2,111.2-2.9c10,0.3,20,3,30,4.5
		c9.6,1.5,19.4,2.6,28.9,4.7c12.1,2.6,24.1,5.9,36,9.1c9.4,2.5,18.9,5.1,28.1,8.3c23.6,8.1,46.7,17.8,68.4,30.2
		c16.6,9.5,32.6,20.2,48.7,30.6c23.5,15.2,43,34.8,62.6,54.5c14.1,14.2,26.2,29.9,38.1,45.9c19.6,26.3,34.3,55.2,47.5,85
		c7,15.8,12.1,32.5,17.4,49c4.2,13.1,7.9,26.3,10.7,39.7c2.9,14.1,4.8,28.4,6.5,42.7c4.2,35.2,3,70.6,1.6,105.8
		c-0.7,18.3-4.2,36.6-6.6,54.8c-1.2,9.2-2.4,18.4-4.3,27.5c-2.5,12.3-5.3,24.6-8.5,36.7c-4.2,15.8-8.5,31.6-13.5,47.2
		c-5.2,16.2-10.7,32.4-17,48.1c-9.6,23.9-19.6,47.6-30.4,71c-13.7,29.6-28.1,58.9-42.9,88c-10.1,19.9-20.7,39.5-32.2,58.5
		c-18.2,30-36.9,59.6-56.2,89c-14.6,22.3-30.1,44-45.7,65.7c-12.3,17.1-25.2,33.6-38,50.3c-10.8,14.1-21.6,28.1-32.6,41.9
		c-7.4,9.3-15.2,18.4-22.9,27.5c-11.4,13.5-22.9,27.1-34.5,40.5c-9,10.4-18,20.8-27.2,31.1c-12.7,14.2-25.6,28.3-38.4,42.5
		c-7.7,8.5-15.5,16.9-23.3,25.3c-10.1,10.8-20.2,21.6-30.3,32.4c-14.9,15.7-29.6,31.5-44.9,46.8
		c-103.8,104.6-207.8,209.2-311.7,313.7c-5.2,5.3-5.2,5.1-11.7,1.5c-22-12.3-42.9-26.4-62.6-42.1c-11.8-9.4-23.3-19.2-34.8-28.8
		c-40-33.3-75.2-71.5-111.9-108.3c-41.9-42.1-83.5-84.6-125.1-127.1c-16.3-16.6-32.3-33.5-48.4-50.3c-10.4-10.9-20.8-22-31.1-33
		c-8.6-9.2-17.2-18.5-25.7-27.8c-11.7-12.9-23.4-25.8-35-38.8c-9.9-11.2-19.8-22.4-29.5-33.7c-11.2-13.1-22.5-26.1-33.5-39.4
		c-14.6-17.8-29.1-35.6-43.4-53.7c-13.5-17.1-26.9-34.4-39.9-52c-13-17.5-25.6-35.4-38.1-53.3c-13.5-19.5-27-39-39.9-58.8
		c-10.3-15.8-19.9-32-29.6-48.2c-24.9-41.5-47.9-84.1-68.5-127.9c-9-19.2-17.2-38.9-25.5-58.5c-5.8-13.7-11.4-27.4-16.5-41.4
		c-6.1-16.9-12-34-17.2-51.2c-6-19.6-11.6-39.3-16.6-59.1c-3.6-14.2-6.5-28.7-8.7-43.3c-3.6-25-7.8-50-9.2-75.1
		c-1.4-26.7-0.3-53.6,0.6-80.4c0.4-12.2,2.3-24.5,4.1-36.6c1.9-12.4,3.8-24.9,6.9-37.1c3.4-13.4,8.3-26.4,12.1-39.8
		c7.5-26.6,19.8-51.1,32.8-75.1c6.9-12.8,14.9-25,23.5-36.7c8.9-12.3,18.8-24,28.8-35.5c10.1-11.5,20.3-23,31.7-33.1
		c18.1-16,37-31.1,57.4-44.3c21.8-14.1,44.4-27,68.2-37.2c19-8.1,38.4-15.2,58-21.5c18.2-5.8,36.9-10.4,55.6-14.8
		c8.3-2,17.1-2.2,25.6-3.3c8.9-1.2,17.7-2.9,26.6-3.5c14.6-1,29.3-1.9,43.9-1.7c16.6,0.2,33.3,0.9,49.8,2.5
		c12.3,1.2,24.4,4.2,36.6,6.6c10.1,2,20.3,3.6,30.1,6.4c13.3,3.7,26.8,7.6,39.5,12.9c20,8.4,40,17.3,59.1,27.5
		c13.4,7.1,25.5,16.5,38.1,25.1c27.2,18.5,49.5,42.3,71.9,66c12.3,13.1,23.1,27.7,34.4,41.8c8.1,10,16.1,20.2,24.1,30.3
		C583.4-216.5,589.6-208.5,596.6-199.5z M596.9,1181.2c2.4-2.2,3.7-3.3,4.9-4.4c15-14.2,30-28.4,45-42.7
		c107.9-102.7,214.6-206.7,314.2-317.8c64.7-72.1,126.1-146.9,182.6-225.7c60.4-84.4,114.7-172.5,160.1-265.9
		c35.7-73.4,62.8-149.6,75-230.8c8-53.2,6.9-105.9-5.6-158.3c-21.2-89.1-68.9-160.7-143.6-213.6c-57.8-41-123.6-58.8-193.7-62.2
		c-30.7-1.5-61.3,0.2-91.7,5.1c-23.2,3.7-46.4,7.9-68.3,16.5c-42.9,16.8-79.1,43.7-111,76.6c-32.2,33.2-58.7,70.7-82.8,110
		C654.8-87.6,628.1-43,601.3,1.5c-0.9,1.5-2,2.9-3.4,5c-5.5-8.7-10.7-16.7-15.7-24.9c-27.4-44.4-54-89.1-82.2-133
		c-29.4-45.9-63.1-88.6-105.5-123.4c-14.7-12.1-30.1-24.2-47-32.8c-39.6-20.1-82.5-29.9-126.7-33.3c-55.9-4.3-110.4,2.5-163.4,20.9
		c-72,24.9-132.2,66.2-176.8,128.7c-17.6,24.7-32,51.3-40.4,80.4c-10,35-14.6,71.1-16.1,107.5c-3.1,70.4,6.6,139.2,25.6,206.9
		c23.7,84.9,60,164.3,104.7,240c43.3,73.4,92.8,142.7,145.4,209.7c67,85.3,138.6,166.5,214.5,243.9
		c87.6,89.3,176.8,177.2,265.3,265.7C585.4,1168.6,590.9,1174.8,596.9,1181.2z"/>
	<path class="st0" d="M596.9,1181.2c-6-6.4-11.6-12.6-17.4-18.5C491,1074.2,401.9,986.4,314.2,897
		c-75.9-77.4-147.6-158.6-214.5-243.9C47.1,586.1-2.4,516.9-45.7,443.4c-44.6-75.7-80.9-155.2-104.7-240
		c-18.9-67.7-28.6-136.5-25.6-206.9c1.6-36.4,6.1-72.5,16.1-107.5c8.4-29.2,22.7-55.7,40.4-80.4C-74.7-253.9-14.5-295.1,57.5-320
		c52.9-18.3,107.5-25.2,163.4-20.9c44.2,3.4,87.1,13.2,126.7,33.3c16.9,8.6,32.2,20.7,47,32.8c42.4,34.8,76.1,77.5,105.5,123.4
		c28.1,43.9,54.8,88.7,82.2,133c5,8.2,10.2,16.2,15.7,24.9c1.4-2,2.5-3.4,3.4-5c26.9-44.5,53.5-89.1,80.7-133.3
		c24.1-39.3,50.6-76.8,82.8-110c31.9-32.9,68.1-59.8,111-76.6c21.9-8.6,45.1-12.8,68.3-16.5c30.4-4.9,61-6.6,91.7-5.1
		c70.1,3.4,135.8,21.2,193.7,62.2c74.7,52.9,122.4,124.5,143.6,213.6c12.5,52.4,13.6,105.1,5.6,158.3
		c-12.1,81.1-39.3,157.4-75,230.8c-45.4,93.4-99.6,181.5-160.1,265.9c-56.4,78.8-117.9,153.5-182.6,225.7
		c-99.6,111-206.2,215-314.2,317.8c-15,14.2-30,28.4-45,42.7C600.6,1177.9,599.4,1179,596.9,1181.2z"/>
</g>
</svg>
